<?xml version="1.0"?><svg version="1.2" baseProfile="tiny-ps" viewBox="0 0 300 300" xmlns="http://www.w3.org/2000/svg" xmlns:xlink="http://www.w3.org/1999/xlink"><title>mazolaepi</title><g><g fill="#f9fafa" transform="matrix(.1 0 0 -.1 0 300)"><path d="M1356 2739c-162-18-303-62-451-137l-90-47-97-72-97-73-66-73c-172-186-286-418-329-663l-16-89v-262l15-89c9-49 32-136 51-194l35-105 40-74c62-114 123-202 206-290l75-81 86-65 87-65 97-50 96-50 104-34 103-35 106-15 107-16h164l105 16 105 15 102 34c124 40 255 105 356 176l75 53 90 91 91 91 68 102 69 103 37 87c47 109 75 201 95 316l15 89v243l-16 95c-41 237-146 456-310 644l-65 74-82 66c-276 221-622 324-961 284z"/></g><g fill="#b5b1b5" transform="matrix(.1 0 0 -.1 0 300)"><path d="M823 2422c-44-48-90-102-103-120l-24-32h-76l-76-102-76-101-39-79c-22-44-53-118-69-166l-29-88-17-99-16-100 5-120 6-120 25-100c38-152 95-282 188-427 27-42 55-81 62-87l13-11 34 11 34 10 35-43c19-24 64-73 99-111l64-67h119l-62 68c-34 37-95 117-135 177l-74 110-45 95c-85 180-131 349-142 527l-6 98 11 108 12 109 25 96 24 97 60 120 60 120 67 87c38 47 97 118 132 157l63 71h-71l-78-88zm1292-4 87-93 64-96c99-149 157-293 188-475l16-89v-293l-16-82c-48-254-183-527-369-742l-66-78h119l67 72c37 40 79 90 94 110l26 38 25-5c14-3 33-8 42-11l17-5 35 48c53 72 114 182 158 284l39 91 25 102 25 101 5 120 6 120-16 100-17 99-29 88c-16 48-47 122-69 166l-39 79-76 101-76 102h-78l-28 38c-16 20-64 74-108 120l-79 82h-59l87-92zm-738-94-28-15-6-29-5-30-42-11c-102-27-239-104-324-183l-43-40-10 15c-5 8-9 24-9 36 0 22-17 40-28 29-3-4 1-28 10-55l15-48-53-79-53-79-27-67-27-67-8 5c-5 3-14 25-20 50-12 45-29 60-29 24 0-10 9-44 21-75l21-56-8-27c-4-15-10-88-13-162l-6-134-31 59c-18 33-35 75-39 93l-7 32h-30l7-66c8-80 36-184 69-258l25-56h-29V940h50v125l36-62c19-35 39-63 43-63 5 0 34-31 66-70 32-38 86-91 119-119l61-49 63-26c34-15 93-34 130-43l67-16h130l130-1 110 22c167 33 435 127 435 153 0 12-10 11-77-6l-57-15h-109l39 26c59 40 84 61 144 118l55 53 68 8 69 7 14-21 15-21h39v14c0 8-5 18-11 21l-10 7 5 14 6 15-16 6c-8 3-28 25-45 50l-31 44 25 59c14 32 31 83 38 114l14 56 54 16 54 15-11 11-10 10-33-11c-17-6-36-11-40-11h-9v185l-15 67c-7 37-25 95-39 130l-25 62 19 21 20 21v60l-28 45c-62 96-218 214-376 282l-89 38-114 30-114 29h-62l-62-1-28-15zm275-40c110-29 125-39 43-27-33 4-122 7-198 6l-138-1 14 21c8 12 25 25 38 29l24 7 63-5c35-3 104-17 154-30zm53-57 80-11-100-8-100-7-85-25c-47-13-88-22-92-20-5 3-15 19-24 36l-15 30 6 6c10 10 132 19 195 15 30-2 91-9 135-16zm-338-47 21-40-29-16c-36-18-41-16-64 36l-19 42 15 9c8 5 23 9 34 9h20l22-40zm-107 16c0-3-26-54-57-113l-57-108-50-62c-27-35-51-63-53-63-8 0-55 58-79 98l-27 43 24 25c68 73 299 212 299 180zm410-41c-18-48-38-80-69-109l-30-29-38 28c-49 36-93 77-93 86 0 12 145 46 202 48l38 1-10-25zm90 11c-25-14-40-13-40 5v9h33l32-1-25-13zm158-2 31-6 10-31 11-30v-60c0-33-5-89-11-124l-11-63h-17c-9 1-29 6-45 13l-28 12-59 125-58 125 8 8c13 13 83 36 112 37 15 0 40-3 57-6zm-417-246-56-79-53 113c-30 62-54 117-55 121-1 5 13 17 31 27l34 18 77-60 77-61-55-79zm645 96 62-62 11-35 12-36-11-21-11-21-9 6c-5 3-23 32-40 63-17 32-55 91-85 131s-55 75-55 77c0 12 69-44 126-102zm-121 1c14-30 32-85 41-120l17-66-7-6-6-6-48 9-47 9 3 25c1 14 5 67 8 118 4 50 9 92 11 92s15-25 28-55zm121-127c13-26 24-52 24-58v-10h-61l-3 13c-16 60-46 166-52 182l-6 20 37-50c20-27 48-71 61-97zm-616-19-52-103-10 18-10 18 12 26c14 33 102 153 107 148 3-2-19-50-47-107zm-552 19 51-67-31-57c-17-32-48-104-68-161l-36-103-45 48c-25 26-56 62-69 80l-22 33 17 47c40 105 127 257 145 250 4-2 30-33 58-70zm347-105 38-82-6-23c-4-13-12-31-19-41l-13-18-67 47-67 46 42 84 41 84 7-8c3-4 23-44 44-89zm439-84 87-167-21-53c-12-30-24-57-28-60l-7-7-90 32-90 31-27 55c-15 30-27 62-28 70 0 12 112 271 116 266 1 0 41-76 88-167zm151 131 25-10-6-27c-4-16-10-32-14-36l-8-9-10 29c-5 15-13 36-17 46-8 20-5 20 30 7zm148-36 27-6v-221l-11-65-11-64-8 9c-4 4-33 64-65 132l-57 124 12 55 12 54 36-6c21-4 49-9 65-12zm144-31c9-21 24-67 35-103l18-65 7-91 6-91-7-27-6-26h-159l-11 19-10 20 16 68 17 68 1 127 1 127 20 4c11 2 28 5 38 6l18 1 16-37zm-1184-28c-15-30-29-53-31-51-4 5 46 106 53 106 3 0-7-25-22-55zm289-149c-2-6-20-54-41-106s-46-119-56-148l-17-53-16 6c-30 11-152 97-152 106 0 11 44 100 107 216l44 83 67-46 67-46-3-12zm86 25c-4-18-19-23-36-12l-13 8 12 27 13 28 13-18c8-10 12-25 11-33zm-573-75 58-69-54-108-53-109-21 20-20 21v274l8 29 8 29 8-9c5-5 34-40 66-78zm542 33 12-12-76-151-76-151-4 12c-4 11 76 231 104 286 15 30 23 33 40 16zm529-130c14-28 24-53 22-54-6-7-88 17-88 25 0 12 30 80 35 80 3 0 16-23 31-51zm-173-28c37-13 67-24 67-27 0-9-65-134-70-134-3 0-12 17-21 38-9 20-29 63-43 96l-27 58 13-4c7-3 43-15 81-27zm-225-6c16-35 16-35-18-35-16 0-30 2-30 5 0 11 24 55 30 55 4 0 12-11 18-25zm-809-90c23-33 41-67 41-76s9-42 20-75l20-59-16 20c-44 56-114 208-114 247 0 15 2 13 49-57zm1207 49 41-6 30-62 31-62-7-15c-5-8-25-45-47-84l-38-70-6 30-5 30-28 3-27 3v-111h-10c-5 0-16 16-25 36l-14 35-49 22-48 22 61 122 60 123 20-4c11-3 38-8 61-12zm-792-60 84-55-16-60-16-59h-55l-31-45-31-45-12 7c-7 4-24 16-39 27l-28 20v35l-32 3-33 3-3 43-3 42h51l35 70c19 39 37 70 40 70s43-25 89-56zm1151 4c-4-18-19-64-35-103l-27-70-20-3-21-3-46-69-45-69-33 4c-18 3-54 7-81 10l-47 6 25 42c15 23 40 70 58 105l31 62h73c40 0 73 2 73 5 0 4-6 18-14 33-7 15-17 37-20 49l-7 22 58 4c32 2 64 4 71 5l14 2-7-32zm-912-139 69-34-59-5-58-5v-30l63-5 63-5-76-60-75-60 3-10 4-10 116-3 117-3v41h-163l77 55c42 30 83 55 92 55h15l-7-34-6-35 16-23c9-12 16-26 16-29 0-4-19-31-41-59l-41-52-42 4-41 5-80 34-80 34 18 3 18 4-5 14c-3 8-24 41-46 74l-41 60 17 62c9 35 18 66 20 70l5 8 32-14c18-7 63-29 100-47zm-488-32c20-28 19-57-2-86l-16-24-20 38c-17 34-57 140-57 152 0 9 80-59 95-80zm5 63c0-11-4-20-8-20-5 0-17 9-27 20l-18 20h53v-20zm827-22-24-41-47-12c-25-7-49-14-52-17-5-6-186 66-239 95l-30 16 209 1h208l-25-42zm-52-88c-3-5-11-10-16-10h-10l6 10c3 6 11 10 16 10h10l-6-10zm109-20c11-11 18-22 15-24-6-7-81 13-93 24l-8 8 7 12 7 12 27-7c14-3 35-15 45-25zm-597-36c-3-3-17-4-31-2l-27 3 17 23 16 23 15-21c8-12 13-24 10-26zm463 17c-1-9-26-41-34-41s-8 45 0 53c7 7 34-2 34-12zm578-19c-27-5-34 4-18 23l13 15 13-17 13-18-21-3zm-1168-17c0-5-9-21-20-35-25-32-25-40 2-40h22l21 26 20 26 29-13 28-13-6-29c-3-16-6-40-6-53v-24h-82l-44 32c-42 30-55 48-34 48h10v121l30-18c17-9 30-22 30-28zm-110-17v-51l-19 17-20 18 16 34c9 19 18 34 20 34s3-23 3-52zm839 17c16-16-72-50-103-40-9 3-23 7-32 10l-15 5 21 29 20 30 53-16c28-8 54-17 56-18zm-931-20c-3-3-9 2-12 12l-7 18 12-12c7-7 10-15 7-18zm1022-6c0-18-72-100-132-149l-56-48-26 5c-14 3-26 9-26 14s-9 18-20 29l-20 20h-61l37 48c21 26 39 48 39 49 1 1 19-2 40-8l39-11 52 11 52 12 17 19 18 20h47v-11zm-642-19c14-23 12-24-23-8-29 13-33 28-7 28h17l13-20zM959 814c20-22 1-5-41 39l-78 79 6 9 5 9 36-48c19-26 52-65 72-88zm259 102c37-18 95-44 130-57l63-24-3-20-3-19-49-37-49-37-49 19c-27 10-67 28-88 39l-40 20v30h80v30h-82l6 23c3 12 6 32 6 45 0 12 2 22 5 22s36-15 73-34zm772-26-55-49-9 9-10 10h-150l39 40 39 40h101l100-1-55-49zm-950-90v-25l-21 25c-11 14-24 33-30 44l-11 18 31-18 31-18v-26zm756 30h34v-63l-67 7c-37 4-69 9-72 12-3 2 11 17 30 33l34 29 3-9 4-9h34zm98-15c-25-19-34-19-34 0v15h54l-20-15zm-355-36c-8-5-28-9-46-9h-32l-6 10c-4 6-4 17-1 25l5 14 47-16 46-16-13-8zm71-9c0-12-142-80-166-79l-19 1 13 5 12 5v48h131l5 15c7 17 24 21 24 5zm-344-62c3-3-18-11-46-18l-52-12-11 11-11 11h64v20h-68l-6 16c-3 9-6 19-6 24v8l65-27c36-15 68-30 71-33zm140-5c-2-3-19-2-36 2l-32 7 34 28 33 28 3-30c2-16 1-32-2-35zm324 26c-65-29-140-49-184-49h-41l64 35c36 19 69 39 73 43l8 8 61-9 60-10-41-18zm-620 11v-21l-20 11c-11 6-20 15-20 20v10h40v-20zm720-10v-10h-55l15 10c20 13 40 13 40 0zm80 0c-36-11-50-11-50 0v10l38-1 37-1-25-8zm-150-30v-10h-55l15 10c20 13 40 13 40 0zm-410-14 35-13-46-8c-25-4-57-5-70-3l-24 3 30 17c35 20 31 20 75 4z"/></g><g fill="#0c99db" transform="matrix(.1 0 0 -.1 0 300)"><path d="M849 2443c-36-38-87-94-114-125l-47-58h-73l-68-93-68-92-54-110-55-110-25-98-25-99-9-99-9-99 8-95c20-210 90-401 223-609l50-78 46 6 46 6 57-73c31-39 74-89 96-110l39-38 51 3 52 3-66 75c-173 198-307 464-365 725l-14 60v370l19 85c53 246 167 448 370 658l60 62h-60l-65-67zm1267-25c235-244 343-497 361-843l6-120-17-115-17-115-39-116c-73-220-195-428-344-586l-49-53h110l69 73c39 39 83 89 98 110l29 37 47-6 47-6 50 78c133 207 203 399 223 611l8 93-9 99-9 99-25 99-25 98-55 110-54 110-68 92-68 93h-80l-41 53c-23 28-72 85-109 125l-67 72h-61l89-92zm-909-330c-32-62-100-194-152-293-97-187-285-563-285-571 0-7 163 5 170 13 10 10 135 252 244 471 48 94 89 172 92 172 5 0 37-67 110-227 8-17 14-36 14-41 0-6-40-93-89-194-49-100-87-185-85-187s115-4 252-5l248-1-48 102c-26 56-48 109-48 117s-4 17-9 20c-5 4-23 36-40 72l-31 67 61 133c34 74 63 134 65 134s76-144 165-320l162-320h147v9c0 5-28 67-61 138-34 70-87 184-119 253s-97 208-145 310-94 202-103 222c-10 21-20 38-23 38s-52-97-109-215-106-215-110-215c-7 0-82 155-183 383-11 26-24 47-27 47s-31-51-63-112zm291-673c7-14 12-30 12-35v-10h-60v10c0 15 23 60 30 60 4 0 12-11 18-25zm-815-292-13-5V950h49l3 58 3 57 32-57 32-56 21-7 20-6 10 6c6 4 23 30 38 58l27 52 3-57 3-58h12c7 0 18 4 25 9l13 8-3 84-3 84h-60l-28-50c-15-27-30-58-33-67-10-30-22-20-60 52l-36 70-22-1c-11 0-27-3-33-6zm680 0-63-4v-18l68-3 67-3-77-64c-43-35-78-68-78-72v-9l58-1c92-2 95-2 135-1l37 2v19l-87 3-88 3 88 64 88 63-4 12-4 11-39 1c-21 0-67-1-101-3zm232-8c-22-8-41-15-42-15s-9-13-18-29l-15-30 9-23c5-13 18-31 29-41l21-19 59-5 59-6 36 12 37 12 19 24 18 24-4 25c-6 31-38 60-82 75-44 14-77 13-126-4zm150-39 24-24-6-20c-3-12-13-28-24-38l-19-17-48-5-48-4-32 27-32 27v14c0 8 12 26 26 39l27 25h108l24-24zm419 44-20-8-52-79c-29-44-52-82-52-86s9-7 20-7h20l16 25 16 25h127l14-21 15-21 21 4 21 3-58 87c-31 48-59 87-62 87s-14-4-26-9zm46-87v-13h-28c-39 0-44 8-25 36l16 25 18-17c11-10 19-23 19-31zm-1165 11c-27-42-51-81-53-85l-4-9h40l14 22 15 22 61 2 62 3 16-25 16-24h48l-54 83-54 82-29 3-28 2-50-76zm98 12c19-29 14-36-30-36h-34l16 30c19 36 28 37 48 6zm706 17c-1-27-3-65-4-85l-4-38h189v32l-70-7-70-7 2 18v77l-2 57h-40l-1-47zm-771-220-38-4V700h170v20h-140v40h60v31l-27-3-28-3-3 23-3 22h141v20h-34c-19 0-40 1-48 3-7 2-30 2-50 0zm364-1-33-3 3-72 3-72h30l3 23 3 22h116l16 18c20 22 21 42 5 64l-13 16-50 3c-27 2-65 3-83 1zm106-49-3-28-47-3-48-3v61h101l-3-27zm222 37v-10h60V720h-60v-20h160v20h-70v110h70v20h-160v-10z"/></g><g fill="#385799" transform="matrix(.1 0 0 -.1 0 300)"><path d="M849 2443c-36-38-87-94-114-125l-47-58h-73l-68-93-68-92-54-110-55-110-25-98-25-99-9-99-9-99 8-95c20-210 90-401 223-609l50-78 46 6 46 6 57-73c31-39 74-89 96-110l39-38 51 3 52 3-66 75c-173 198-307 464-365 725l-14 60v370l19 85c53 246 167 448 370 658l60 62h-60l-65-67zm1267-25c235-244 343-497 361-843l6-120-17-115-17-115-39-116c-73-220-195-428-344-586l-49-53h110l69 73c39 39 83 89 98 110l29 37 47-6 47-6 50 78c133 207 203 399 223 611l8 93-9 99-9 99-25 99-25 98-55 110-54 110-68 92-68 93h-80l-41 53c-23 28-72 85-109 125l-67 72h-61l89-92zm-530-440-108-223 2-142c0-79-1-143-4-143s-20 30-37 68l-31 67-5-12c-2-7 8-52 22-100l27-87 17 23 17 23 16-41 16-41h-23c-32 0-34-6-22-77l10-63h108c59 0 114-3 123-6l16-6-50 106c-28 58-50 111-50 119s-6 20-14 26c-8 7-26 40-41 75l-26 62 63 135 64 134 85-162c46-90 86-163 89-163s4 71 3 159l-3 159-9 23c-7 21-57 134-119 271-9 21-20 38-23 38s-54-100-113-222zm-466-50c-11-18-25-50-31-70l-10-38h-9c-6 0-10-7-10-16s-26-61-58-117c-51-88-232-450-232-462 0-8 163 4 171 12 4 4 49 91 99 193l92 184 3 162c1 88 5 166 9 172 4 7 5 12 1 12-3 0-14-15-25-32zm1000-671v-27h15c19 0 19 9 0 34l-15 20v-27zM683 1123l-13-5v-44l41 3 42 3 14-17 14-18-22 43-23 42-20-1c-12 0-27-3-33-6zm203-15c-23-32-21-35 20-30l36 4 9-13 9-14v65h-14c-8 0-21 3-29 6l-15 5-16-23zm477 15-63-4v-19h130v-18l30 2c17 1 35 7 41 13l11 11-6 11-7 11-37-2c-20-1-65-3-99-5zm246-2c-14-5-36-14-49-21l-25-13 20-8 20-7 23 15 24 15 51-5c29-2 64-7 80-11 40-10 33 2-15 24l-43 20-30-1c-16 0-42-4-56-8zm555-1c-12-4-24-15-27-24l-6-16h30l-11-22-11-23 17 23 16 22h48l-12 25c-12 27-13 28-44 15zm-1078-16c-9-24-9-24 39-24h45v8c0 4-5 13-12 20l-12 12h-54l-6-16zm764-4v-20h40v40h-40v-20zm-1019-92-1-17-30 6-30 6v-12c0-16 37-51 54-51 14 0 46 36 46 52 0 5-6 8-14 8s-17 6-19 13l-5 12-1-17zm1012-23-1-35h188v32l-71-7-71-7 6 20 7 20-22-5-21-6-7 11-7 12-1-35zm332 17-100-2-17-21c-23-28-23-39 2-39h20l16 25 16 25h127l14-21 15-21 21 4 21 3-18 25-17 25-100-3zM670 975v-25h50v9c0 5-3 16-6 25l-6 16h-38v-25zm240-5v-30h9c5 0 16 3 25 6l16 6v48h-50v-30zm110 17c-13-7-25-18-28-24l-4-13h41l11 21c15 27 10 31-20 16zm68 6c7-3 16-2 19 1 4 3-2 6-13 5l-19-1 13-5zm109-19 15-24h49l-17 23-17 22-23 1-23 2 16-24zm100 5c-12-9-20-19-17-22 5-5 130-11 193-8l37 1v20h-169l5 13 5 14h-17c-9 0-26-8-37-18zm260-1 21-20 64-5 65-5 36 17c21 9 37 21 37 26v8l-19-4c-11-2-29-8-40-14s-37-11-58-11h-39l-19 13c-11 7-31 14-44 15l-24 1 20-21z"/></g><g fill="#0366b2" transform="matrix(.1 0 0 -.1 0 300)"><path d="M854 2448c-92-97-145-164-214-273l-65-100-37-92c-20-50-49-140-64-200l-28-108v-160l1-160 12-85 12-85 34-103 35-103 68-137c38-75 73-148 79-162s48-67 93-117l81-93h109l-73 88c-143 169-245 349-311 546l-36 107-16 92-16 92 5 170 5 170 21 85c56 225 155 403 327 591 33 35 65 72 73 82l13 17h-49l-59-62zm1210 32c46-41 163-181 213-255 83-124 145-276 179-440l19-90-1-180v-180l-23-95c-47-190-123-360-238-534l-66-99-65-68-64-69h108l60 63c67 68 134 150 134 162 0 4 32 70 70 146l70 138 35 103 34 103 12 85 12 85v330l-31 115c-17 63-46 152-65 196-57 136-180 313-314 452l-61 62h-53l35-30zm-502-557-84-167 1-143c1-79 0-143-3-143s-20 30-37 68l-31 67-5-12c-2-7 8-52 22-100l27-87 17 23 17 23 16-41 16-41h-23c-32 0-34-6-22-77l10-63h179l-4 73-4 72-53 114-52 113 51 113 51 113-3 131-3 132-83-168zm185-5 3-173 47-97c26-54 50-98 53-98 7 0 2 314-6 336-12 32-92 204-96 204-2 0-2-78-1-172zm-731-208-126-250v-230h50l96 192 96 192 3 162c1 88 5 166 9 172 4 7 5 12 2 12-2 0-61-112-130-250zm1104-453v-27h15c19 0 19 9 0 34l-15 20v-27zm-504-139c-22-5-46-14-53-20l-14-11 11-7 11-7 40 20 39 19 43-11c63-17 87-22 87-16 0 9-55 32-90 37l-35 5-39-9zm-946-21v-23l28 2c15 1 35 3 45 3l17 1-12 20-13 20h-65v-23zm223 11c-6-7-13-18-16-23l-6-11 36 4 35 4 9-13 9-14v65h-58l-9-12zm199 0c-7-7-12-16-12-20v-8h90l-12 20-13 20h-20c-12 0-26-5-33-12zm208 2v-10h130v-17l28 2c40 3 42 4 42 20v15h-200v-10zm550-10v-20h40v40h-40v-20zm290 0-11-20h32l-6-12-6-13 13 15 13 15 23-3 24-4-12 21-11 21h-48l-11-20zM824 991l-6-16-5 13-5 12h-19c-22 0-24-9-6-34l13-18 23 4 24 3 14 21 14 21-20 6-20 5-7-17zm1433 10-19-7 19-23 19-23 15 3 16 4-16 26-16 26-18-6zM672 978l3-23 18-3 17-3v51h-41l3-22zm238 10c0-7 4-19 9-27l9-14 16 6 16 6v41h-50v-12zm114 2c-12-5-24-15-27-24l-6-16h38l11 21c14 25 11 29-16 19zm173-15 18-24 18-1c34 0 6 44-31 47l-23 3 18-25zm103 8c-11-8-20-18-20-24v-9h230v20h-169l5 13 5 14h-16c-8 0-24-7-35-14zm260-2c26-20 64-31 111-31 33 0 109 28 109 41v8l-19-4c-11-2-29-8-40-14-25-14-87-14-113 0-11 6-32 13-46 15l-27 4 25-19zm290-6v-25h180v20h-140v30h-40v-25zm210 4c-7-11-9-23-6-26 9-9 34 5 46 26l11 21h-40l-11-21z"/></g><g fill="#35383d" transform="matrix(.1 0 0 -.1 0 300)"><path d="M854 2448c-92-97-145-164-214-273l-65-100-37-92c-20-50-49-140-64-200l-28-108v-160l1-160 12-85 12-85 34-103 35-103 68-137c38-75 73-148 79-162s48-67 93-117l81-93h109l-73 88c-143 169-245 349-311 546l-36 107-16 92-16 92 5 170 5 170 21 85c56 225 155 403 327 591 33 35 65 72 73 82l13 17h-49l-59-62zm1210 32c46-41 163-181 213-255 83-124 145-276 179-440l19-90-1-180v-180l-23-95c-47-190-123-360-238-534l-66-99-65-68-64-69h108l60 63c67 68 134 150 134 162 0 4 32 70 70 146l70 138 35 103 34 103 12 85 12 85v330l-31 115c-17 63-46 152-65 196-57 136-180 313-314 452l-61 62h-53l35-30z"/></g></g></svg>